<svg xmlns="http://www.w3.org/2000/svg"  viewBox="0 0 48 48" width="48px" height="48px"><polygon fill="#3dd9eb" points="15,1 14,9 5,8 8,18 1,23 8,28 2,32 8,36 7,41 24,38 41,41 40,37 46,30 41,28 47,19 39,18 44,10 34,10 33,2 24,6"/><path fill="#fac8d5" d="M24,11c-6.1,0-11,5.4-11,13.2v9.5C13,41.6,17.9,47,24,47s11-5.4,11-13.2v-9.5C35,16.4,30.1,11,24,11 z"/><path fill="#fa91ad" d="M24,34L24,34c-1.105,0-2-0.895-2-2v-6h4v6C26,33.105,25.105,34,24,34z"/><path fill="#fafafa" d="M15.05,25C15.032,25.166,15,25.329,15,25.5c0,2.485,2.015,4.5,4.5,4.5s4.5-2.015,4.5-4.5 c0-0.171-0.981-0.334-1-0.5H15.05z"/><path fill="#fafafa" d="M24.05,25C24.032,25.166,24,25.329,24,25.5c0,2.485,2.015,4.5,4.5,4.5s4.5-2.015,4.5-4.5 c0-0.171-0.032-0.334-0.05-0.5H24.05z"/><circle cx="28.503" cy="26.497" r="1.503" fill="#6c19ff"/><path fill="#fa91ad" d="M30.027,39.924C30,39.915,27.196,39,24,39s-6,0.915-6.027,0.924l-0.947-2.847 C17.158,37.033,20.299,36,24,36s6.842,1.033,6.974,1.077L30.027,39.924z"/><circle cx="19.503" cy="26.503" r="1.497" fill="#6c19ff"/><path fill="#fa91ad" d="M15.05,26C15.032,25.834,15,25.671,15,25.5c0-2.485,2.015-4.5,4.5-4.5s4.5,2.015,4.5,4.5 c0,0.171,1.019,0.334,1,0.5H15.05z"/><path fill="#fa91ad" d="M24.05,26C24.032,25.834,24,25.671,24,25.5c0-2.485,2.015-4.5,4.5-4.5s4.5,2.015,4.5,4.5 c0,0.171-0.032,0.334-0.05,0.5H24.05z"/><rect width="18" height="3" x="15" y="19" fill="#6c19ff"/><circle cx="13" cy="34" r="3" fill="#fac8d5"/><circle cx="35" cy="34" r="3" fill="#fac8d5"/><path fill="#fa91ad" d="M32,34c0,1.555,1.187,2.819,2.703,2.97C34.89,35.965,35,34.91,35,33.8V31 C33.343,31,32,32.343,32,34z"/><path fill="#fa91ad" d="M13.31,36.969C14.819,36.812,16,35.551,16,34c0-1.657-1.343-3-3-3v2.7 C13,34.848,13.115,35.935,13.31,36.969z"/></svg>